<svg xmlns="http://www.w3.org/2000/svg" version="1.1" viewBox="157 139.21 438 473.58">
 <defs>
  <clipPath id="a">
   <path d="m157 139.21h438v473.58h-438z"/>
  </clipPath>
 </defs>
 <g clip-path="url(#a)">
  <path d="m591.91 375.35-25.234-42.391 0.003906-57.387c0.085938-5.8867-2.168-11.57-6.2617-15.801-4.0977-4.2305-9.7031-6.668-15.594-6.7695h-93.762v-9.0352c0.039062-3.9297-1.4766-7.7109-4.2188-10.52-2.7422-2.8086-6.4883-4.418-10.414-4.4688h-43.18v-67.195c0.089844-5.8867-2.1641-11.57-6.2578-15.801-4.0977-4.2305-9.707-6.668-15.594-6.7695h-86.707c-5.8906 0.10156-11.496 2.5391-15.594 6.7695-4.0938 4.2305-6.3477 9.9141-6.2578 15.801v164.55h-90.152c-9.6523 0-13.023 5.2578-14.027 7.5195-1.0156 2.293-2.6602 8.4336 4.0547 15.84l35.879 39.574 2.8398 41.688c0.125 1.8477 0.9375 3.5781 2.2773 4.8555l33.797 32.203c2.8789 2.8203 6.8555 4.2266 10.867 3.8398 4.0117-0.38281 7.6523-2.5156 9.9414-5.832l15.715-21.844h30.367l67.973 71.359h0.003906c1.7734 2.2539 2.8398 4.9844 3.0625 7.8477v42.355c0 2.5625 1.3242 4.9414 3.5 6.2891l61.02 37.805c2.8359 1.8633 6.1406 2.8867 9.5312 2.9609 6.8516 0 14.219-5.2266 14.219-16.711v-68.273c0.21484-3.332 1.2227-6.5586 2.9453-9.418l19.059-27.012 13.902-9.9062h16.309c2.1992 0 4.2852-0.98047 5.6914-2.6758l68.715-82.785v0.003906c2.2695-2.9062 3.6289-6.418 3.9102-10.098 0.28125-3.6758-0.52734-7.3516-2.3281-10.57zm-12.973 11.215-66.492 80.109h-15.199c-1.5391 0-3.0391 0.48047-4.2891 1.375l-16.855 12.012v-0.003906c-0.67969 0.48437-1.2734 1.082-1.7539 1.7617l-19.793 28.047v-0.003906c-3.4961 5.3516-5.4492 11.559-5.6523 17.949v68.273c0 0.73828-0.75781 1.4141-1.1484 1.1719l-57.516-35.633v-38.238c-0.21875-6.6641-2.7461-13.047-7.1484-18.051l-70.16-73.66c-1.3945-1.4648-3.332-2.2969-5.3555-2.2969h-37.336c-2.3828 0-4.6172 1.1445-6.0078 3.0781l-17.316 24.078-30.91-29.449-2.8164-41.387h-0.003906c-0.11328-1.6602-0.78125-3.2344-1.9023-4.4688l-36.352-40.094h95.309c4.0859 0 7.3984-3.3164 7.3984-7.4023v-171.95c-0.18359-4.0859 2.9688-7.5586 7.0547-7.7695h86.707c4.0859 0.21094 7.2383 3.6836 7.0547 7.7695v74.594c0 4.0859 3.3125 7.3984 7.3984 7.3984l50.41 0.1875v16.438c0 4.0859 3.3125 7.3984 7.3984 7.4023h101.16c4.0859 0.21094 7.2344 3.6836 7.0508 7.7695v59.422c0 1.332 0.35938 2.6406 1.0391 3.7852l26.281 44.141c0.48438 1.1875 0.39062 2.5352-0.25391 3.6445z" fill="#fff"/>
 </g>
 <path d="m472.2 369.3h-25.188l-8.5938-22.719c-1.0898-2.875-3.8477-4.7812-6.9219-4.7812-3.0781 0-5.832 1.9062-6.9219 4.7812l-8.5898 22.719h-25.191c-3.1445 0.003906-5.9453 1.9922-6.9844 4.9609-1.0352 2.9688-0.082032 6.2695 2.3789 8.2305l20.121 16.012-5.8477 22.863c-0.75391 2.9648 0.38672 6.0859 2.8789 7.8594 2.4922 1.7734 5.8164 1.832 8.3711 0.14844l19.785-13.07 19.785 13.07c2.5508 1.6836 5.8789 1.6289 8.3711-0.14453 2.4922-1.7734 3.6367-4.8984 2.8789-7.8633l-5.8516-22.863 20.121-16.012h0.003907c2.4609-1.9609 3.4141-5.2617 2.375-8.2305-1.0352-2.9688-3.8359-4.957-6.9805-4.9609zm-28.477 20.605v0.003906c-2.2812 1.8125-3.2852 4.7969-2.5625 7.6172l2.2852 8.9336-7.8711-5.1992v0.003906c-2.4727-1.6367-5.6836-1.6367-8.1562 0l-7.8711 5.1992 2.2852-8.9336v-0.003906c0.71875-2.8203-0.28125-5.8047-2.5625-7.6172l-7.293-5.8047h9.1172v-0.003906c3.0781 0 5.832-1.9023 6.9219-4.7812l3.4805-9.2031 3.4805 9.2031c1.0898 2.8789 3.8438 4.7812 6.9219 4.7812h9.1172z" fill="#fff"/>
</svg>